<?xml version="1.0" encoding="UTF-8" standalone="no"?>
<svg width="136px" height="67px" viewBox="0 0 136 67" version="1.1" xmlns="http://www.w3.org/2000/svg" xmlns:xlink="http://www.w3.org/1999/xlink" xmlns:sketch="http://www.bohemiancoding.com/sketch/ns">
  <path d="M95.432,8.048 C96.136,8.304 96.648,7.92 95.752,7.472 C90.824,4.784 77.64,1.392 64.136,0.944 C62.728,0.88 61.384,0.88 59.976,0.88 C30.6,0.88 1.096,11.056 0.712,24.88 C0.584,30.512 7.88,32.496 12.168,32.56 C12.36,32.56 12.424,32.496 12.424,32.496 C11.912,32.24 5,30 5.512,25.904 C6.536,17.328 30.152,3.44 63.176,3.44 C64.392,3.44 65.672,3.44 66.888,3.504 C82.376,4.016 94.344,7.536 95.432,8.048 L95.432,8.048 L95.432,8.048 Z M15.432,64.112 C15.56,65.904 16.712,66.608 17.8,66.544 C19.528,66.48 23.944,63.28 24.072,62.064 C22.152,63.28 20.68,63.856 19.208,63.92 C18.696,59.696 36.68,32.24 47.56,19.312 C51.144,15.088 53.96,12.784 55.432,12.784 C55.944,12.784 56.52,12.976 56.968,13.552 C56.392,10.864 53.704,9.072 51.4,9.072 C50.248,9.072 48.776,10.16 46.92,11.952 C45.128,13.68 42.696,16.24 39.688,20.016 C28.68,34.096 14.984,58.032 15.432,64.112 L15.432,64.112 L15.432,64.112 Z M55.112,38.384 C49.224,45.168 43.848,49.52 41.928,50.544 C42.44,46.896 48.008,38.256 50.568,35.312 C51.464,34.288 52.232,33.712 52.808,33.712 C53.384,33.776 53.576,34.032 53.512,33.84 C53.448,32.176 50.824,29.68 49.16,29.68 C48.968,29.68 48.584,29.744 48.264,30.064 C46.792,31.28 45.512,32.816 43.592,35.76 C40.008,41.136 36.68,48.368 36.808,51.696 C36.936,52.208 38.536,54.704 39.752,54.704 C40.456,54.704 42.312,53.104 44.296,51.44 C46.856,49.328 51.272,44.336 54.216,40.944 C52.552,44.4 50.824,48.944 51.144,51.44 C51.208,51.952 52.808,54.448 54.408,54.448 C56.968,54.448 75.4,36.656 80.2,24.24 C80.52,23.6 80.392,23.6 80.008,24.112 C73.992,33.648 63.88,45.424 55.816,50.352 C55.56,49.456 57.416,44.528 59.72,40.88 C62.152,37.04 63.56,35.44 64.52,35.504 C65.16,35.568 65.352,35.824 65.352,35.632 C65.224,33.968 62.472,31.536 60.936,31.536 C60.744,31.536 60.36,31.6 60.04,31.856 C58.824,32.88 57.544,34.8 55.112,38.384 L55.112,38.384 L55.112,38.384 Z M87.944,20.208 C86.28,20.72 83.848,24.88 83.912,26.736 C83.976,27.888 85.32,29.232 86.216,28.08 C86.984,26.992 89.928,24.368 91.016,23.92 C91.72,23.6 92.232,23.856 92.36,23.856 C92.616,23.856 92.232,22.896 91.656,22.256 C90.824,21.296 89.416,20.016 87.944,20.208 L87.944,20.208 L87.944,20.208 Z M85.1780266,43.5120188 C84.0248314,45.4626919 83.3332326,47.2305291 83.08,48.56 C82.888,49.328 82.888,49.968 82.952,50.48 C83.272,52.528 85.576,54.448 87.624,54.448 C93.1207916,54.448 100.73616,48.890573 106.727144,43.7516988 C106.235329,44.5763734 105.816258,45.3933883 105.48,46.192 C104.968,47.6 104.584,48.88 104.584,50.416 C104.584,52.144 107.144,54.448 109.128,54.448 C117.64,54.448 130.376,42.224 135.176,37.744 C135.368,37.552 134.92,37.232 134.728,37.36 C128.264,42.736 116.552,51.632 111.88,51.632 C110.472,51.632 109.896,51.184 109.96,50.416 C110.152,48.752 111.368,46.704 112.52,45.36 C119.688,45.168 131.976,35.952 131.976,31.984 C131.976,30.192 129.032,28.72 128.072,28.72 C125.32,28.72 119.624,30.704 114.312,35.12 C112.273204,36.8351776 110.430775,38.7139941 108.908829,40.6240581 L108.908829,40.6240581 C102.769781,45.4683192 94.8652764,51.1802091 90.12,51.696 C89.544,51.76 88.264,51.632 88.264,50.608 C88.264,46.128 100.808,31.664 107.656,31.536 C108.168,31.984 105.544,37.04 104.52,38.064 C104.392,38.256 104.712,38.384 104.84,38.256 C106.952,36.656 110.088,34.288 110.088,31.856 C110.088,30.896 107.912,28.72 106.44,28.72 C101.896,28.72 95.432,32.048 90.184,37.232 C89.7874347,37.6167276 89.4078386,38.0041921 89.0450598,38.392723 C84.6908129,42.564492 76.5953603,50.0573481 73.032,50.992 C73.8,48.368 82.568,33.776 85.192,34.032 C85.704,34.096 86.024,34.416 86.024,34.16 C86.024,32.56 83.464,30 81.992,30 C81.736,30 81.352,30.064 81.032,30.384 C76.936,33.648 67.656,47.6 67.656,51.312 C67.656,52.464 69.256,54.064 70.28,54.384 C70.6,54.448 70.792,54.448 71.048,54.448 C73.8943701,54.218454 79.9351538,48.7856366 85.1780266,43.5120188 Z M129.928,30.64 C129.544,33.072 118.92,43.44 113.352,44.08 C115.464,40.688 122.824,32.944 129.928,30.64 L129.928,30.64 L129.928,30.64 Z" fill="#ffffff"></path>
</svg>
